<?xml version="1.0" encoding="utf-8"?>
<!-- Generator: Adobe Illustrator 18.0.0, SVG Export Plug-In . SVG Version: 6.00 Build 0)  -->
<!DOCTYPE svg PUBLIC "-//W3C//DTD SVG 1.1//EN" "http://www.w3.org/Graphics/SVG/1.1/DTD/svg11.dtd">
<svg version="1.1" id="Capa_1" xmlns="http://www.w3.org/2000/svg" xmlns:xlink="http://www.w3.org/1999/xlink" x="0px" y="0px"
	 viewBox="0 0 32 23" enable-background="new 0 0 32 23" xml:space="preserve">
<g>
	<path fill="#FFFFFF" d="M16,9c-3.5,0-6.4,2.6-6.9,6h2c0.5-2.3,2.5-4,4.9-4c1.9,0,3.5,1.1,4.4,2.6L19,15h1h0.9h2H23v-4l-1.1,1.1
		C20.6,10.3,18.4,9,16,9z"/>
	<path fill="#FFFFFF" d="M16,21c-1.9,0-3.5-1.1-4.4-2.6L13,17h-1.9h-2H9v1v2v1l1.1-1.1c1.3,1.9,3.4,3.1,5.8,3.1c3.5,0,6.4-2.6,6.9-6
		h-2C20.4,19.3,18.4,21,16,21z"/>
	<path fill="#FFFFFF" d="M27.6,8.2C26.7,5.8,24.3,4,21.5,4c-0.6,0-1.3,0.1-1.8,0.3C18.1,1.7,15.2,0,12,0C7.1,0,3.1,3.9,3,8.8
		c-1.8,1-3,3-3,5.2c0,3.3,2.7,6,6,6h1v-2H6c-2.2,0-4-1.8-4-4c0-1.9,1.3-3.5,3.1-3.9C5,9.7,5,9.4,5,9c0-3.9,3.1-7,7-7
		c3.2,0,5.8,2.1,6.7,5c0.8-0.6,1.7-1,2.8-1c2.3,0,4.2,1.8,4.5,4h0c2.2,0,4,1.8,4,4c0,2.2-1.8,4-4,4h-1.2c-0.2,0.7-0.4,1.4-0.7,2H26
		c3.3,0,6-2.7,6-6C32,11.2,30.1,8.9,27.6,8.2z"/>
</g>
</svg>
