<!-- Generator: Adobe Illustrator 18.0.0, SVG Export Plug-In  -->
<svg version="1.1"
	 xmlns="http://www.w3.org/2000/svg" xmlns:xlink="http://www.w3.org/1999/xlink" xmlns:a="http://ns.adobe.com/AdobeSVGViewerExtensions/3.0/"
	 x="0px" y="0px" width="74px" height="74.1px" viewBox="0 0 74 74.1" enable-background="new 0 0 74 74.1" xml:space="preserve">
<defs>
</defs>
<g>
	<g>
		<path fill="#FFFFFF" d="M68.8,0.9c1.5-0.4,3-0.8,4.5-0.9c0.2,0,0.4,0,0.6,0c0.1,0.5,0,0.9,0,1.4c-0.4,3.1-1.5,6-2.9,8.7
			c-1.6,3.1-3.7,6-6,8.6c-1.5,1.8-3.2,3.4-4.9,5c-2.7,2.5-5.5,4.9-8.4,7.1c-0.6,0.5-1.2,0.9-1.8,1.3c-0.1,0.4-0.1,0.9-0.2,1.4
			c-0.2,1.2-0.3,2.4-0.5,3.5c-1.1,0.9-2.3,1.8-3.4,2.6c-2.5,1.7-5,3.2-7.8,4.4c-0.4,0.2-0.7,0.3-1.1,0.4c0-0.1,0.1-0.2,0.2-0.3
			c0.6-0.8,1.2-1.7,1.7-2.6c0.5-1,1.1-2.1,1.3-3.2c-0.6,0.2-1.2,0.6-1.8,0.8c-4.2,4.4-8.5,8.6-12.9,12.8c-5.5,5.2-11.2,10.3-17,15.2
			c-2.7,2.4-5.5,4.6-8.3,7c0-0.2,0.1-0.3,0.2-0.4C5,67.9,9.9,62.1,15,56.5c6.4-7.1,13-14.1,19.9-20.6l0,0c-0.1-0.3,0.1-0.5,0.2-0.8
			c0.1-0.3,0.4-0.6,0.4-0.9c-0.4,0-0.8,0.2-1.1,0.3c-1.7,0.7-3.3,1.7-4.8,2.8l-0.1,0c0-0.2,0-0.3,0.1-0.4c1.3-3.2,3.1-6.2,5.1-9.1
			c0.7-0.9,1.4-1.9,2.1-2.8c1.6-0.3,3.2-0.4,4.7-0.6c0.1,0,0.3,0,0.3-0.1c2.2-3.1,4.6-6.1,7.2-9c1.9-2.1,3.9-4.1,6-6
			C59.1,5.5,63.7,2.5,68.8,0.9z M61.8,4.9c-3.3,2-6.2,4.5-8.9,7.2c-0.2,0.1-0.1,0.4-0.1,0.6c0.3,0.9,0.7,1.6,1.2,2.4
			c0,0,0.1,0,0.1,0c3.3-3.1,6.7-6.1,10.3-8.9c-0.2-0.4-0.5-0.7-0.7-1.1c-0.2-0.3-0.4-0.7-0.6-0.9C62.6,4.3,62.2,4.7,61.8,4.9z
			 M67.8,9.6c-2.7,3.5-5.6,6.9-8.7,10.1c-0.1,0.1-0.2,0.2-0.2,0.3c0.8,0.5,1.6,1,2.5,1.2c0.1,0,0.3,0.1,0.4,0c2.7-2.6,5-5.5,7-8.6
			c0.3-0.6,0.7-1.1,1-1.7C69.1,10.5,68.5,10.1,67.8,9.6L67.8,9.6z M53.1,17c-2.7,2.6-5.2,5.4-7.6,8.2c0,0.1,0.1,0.2,0.2,0.3
			c0.9,1.1,1.9,2.1,3.1,3c0,0,0.1,0,0.1,0c3-2.6,6-5.4,8.8-8.3c0.1-0.1,0.2-0.2,0.2-0.3c-0.7-0.6-1.4-1.2-2-1.8
			c-0.7-0.6-1.2-1.4-1.8-2C53.7,16.4,53.4,16.7,53.1,17z M43.1,23.5c-2.7,3.8-5.3,7.7-7.4,11.8c-0.2,0.2,0.1,0.4,0.3,0.5
			c0.1,0.1,0.2,0.1,0.3,0c2.6-3.6,5.3-7.1,8.1-10.4c0.1-0.1,0.3-0.2,0.1-0.4c-0.4-0.6-0.8-1.2-1.1-1.8
			C43.2,23.3,43.2,23.5,43.1,23.5z M48.7,29.5c-3.4,2.9-7,5.7-10.7,8.4c0.1,0.2,0.3,0.3,0.4,0.5c0.1,0,0.3-0.1,0.4-0.1
			c4.2-2.1,8.2-4.7,11.9-7.5c0-0.1-0.2-0.1-0.2-0.2c-0.6-0.3-1.1-0.7-1.7-1.1C48.8,29.5,48.7,29.5,48.7,29.5z M35.2,36.1
			c-1.1,1-2.1,2-3.2,3.1c-5,5.1-9.5,10.6-13.7,16.3l0,0.1c0.7-0.5,1.5-1.1,2.2-1.6c5.7-4.3,11.2-9,16.2-14.1
			c0.4-0.4,0.8-0.8,1.1-1.3c-0.2-0.3-0.5-0.6-0.8-0.8c-1.1,0.9-2.3,1.8-3.4,2.6c-0.2,0.1-0.3,0.3-0.5,0.4c0,0,0-0.1,0.1-0.1
			c1-1.2,1.9-2.4,2.8-3.6c0.1-0.1,0.2-0.2,0.1-0.3c-0.2-0.2-0.4-0.4-0.5-0.5C35.4,36.2,35.3,36.1,35.2,36.1z"/>
	</g>
</g>
</svg>